<svg version="1.1" preserveAspectRatio="none" xmlns="http://www.w3.org/2000/svg" width="500" height="500" viewBox="0 0 500 500"><rect width="100%" height="100%" fill="#F7F7F7" fill-opacity="1"/><svg viewBox="383.243 324.1841 389.4964 176.7366" width="333" height="151.10098013742876" x="83.5px" y="174.4495px" xmlns="http://www.w3.org/2000/svg" xmlns:xlink="http://www.w3.org/1999/xlink" preserveAspectRatio="none"><defs></defs><style>.companyName {fill:#2B2B2B;fill-opacity:1;}.icon1 {fill:#2B2B2B;fill-opacity:1;}.icon2 {fill:#59C65B;fill-opacity:1;}.icon3 {fill:#6D6D6D;fill-opacity:1;}.icon3-str {stroke:#6D6D6D;stroke-opacity:1;}</style><g opacity="1" transform="rotate(0 519.5668 324.1841)">
<svg width="116.8488" height="75.1366" x="519.5668" y="324.1841" version="1.1" preserveAspectRatio="none" viewBox="4.998709201812744 21.889129638671875 90.00109100341797 57.87286376953125">
  <g transform="matrix(1 0 0 1 0 0)" class="icon1"><path d="M93.056,25.742c0.212-0.211,2.124-2.655,1.93-3.423c-0.049-0.195-0.192-0.347-0.381-0.404  c-0.4-0.119-0.85,0.164-2.068,1.026c-0.487,0.346-0.993,0.704-1.305,0.86c-0.288,0.144-0.794,0.445-1.359,0.782  c-0.768,0.458-2.198,1.31-2.493,1.36c-0.323,0-1.06,0.287-7.209,3.899c-0.376,0.221-0.647,0.381-0.767,0.449  c-0.764,0.436-6.431,4.111-7.028,4.51c-0.267,0.179-1.214,0.906-2.309,1.747c-1.275,0.979-3.202,2.46-3.424,2.584  c-0.139,0.046-0.463,0.198-1.128,0.511c-0.908,0.428-2.152,1.014-2.854,1.269l-1.271,0.457c-1.949,0.698-3.59,1.288-3.91,1.442  c-0.319,0.152-1.586,1.057-3.812,2.673l-0.84,0.609c-0.378,0.27-1.641,1.28-2.978,2.35c-1.165,0.932-2.486,1.989-2.702,2.133  c-0.292,0.195-1.095,1.109-2.906,3.221c-0.759,0.885-1.476,1.722-1.714,1.96c-0.392,0.391-1.086,0.9-1.758,1.393  c-0.351,0.257-0.701,0.515-1.016,0.76c-0.213,0.165-0.532,0.421-0.913,0.726c-1.241,0.995-3.316,2.659-4.257,3.208  c-1.234,0.72-5.563,2.781-6.26,2.981c-0.497,0.142-1.734,0.725-3.299,1.472c-0.564,0.271-1.064,0.509-1.362,0.642  c-1.028,0.456-4.728,3.008-5.339,3.519c-0.592,0.493-3.066,2.143-3.744,2.433c-0.833,0.357-2.007,0.842-2.572,1.029  c-0.034,0.012-0.25,0.067-1.179,0.067c-1.178,0-2.694-0.091-2.709-0.092c-0.105-0.009-0.214,0.022-0.304,0.082  c-0.328,0.219-1.223,0.99-1.584,1.474c-0.032,0.042-0.05,0.052-0.177,0.095c-0.313,0.104-0.664,0.27-0.849,0.896l-0.029,0.099  c-0.156,0.523-0.304,1.02-0.008,1.415c0.279,0.374,0.773,0.374,0.936,0.374c0.884,0,3.851-0.215,5.04-0.539  c0.432-0.118,0.841-0.137,1.236-0.155c0.59-0.027,1.2-0.056,1.741-0.441l0.497-0.358c0.71-0.515,1.682-1.219,2.5-1.71  c0.957-0.573,2.959-1.289,4.383-1.728c1.376-0.423,5.596-2.422,6.69-3.078c0.446-0.268,1.595-0.573,2.706-0.868  c1.3-0.345,2.644-0.702,3.348-1.113c0.985-0.574,2.279-1.029,3.319-1.395l0.675-0.239c0.364-0.132,0.993-0.328,1.716-0.554  c1.598-0.497,3.586-1.117,4.41-1.566c1.149-0.626,3.638-1.584,4.52-1.51c0.438,0.045,0.624,0.217,0.904,0.478  c0.239,0.224,0.512,0.478,0.956,0.644c0.726,0.273,1.225,0.295,1.659,0.222c0.689,0.204,2.699,0.335,4.802,0.335  c1.818,0,3.689-0.098,4.807-0.329c-0.032,0.104-0.073,0.206-0.137,0.318c-0.502,0.88-0.917,3.406-1.06,4.79  c-0.051,0.487-0.125,1.077-0.204,1.697c-0.173,1.372-0.368,2.927-0.368,3.891c0,0.239-0.007,0.475-0.013,0.702  C60.2,76.979,60.169,78.074,61,78.741c0.856,0.689,1.851,0.821,2.812,0.947l0.103,0.014c0.339,0.045,0.628,0.06,0.862,0.06  c0.464,0,0.734-0.059,0.72-0.059h-0.001c0.026-0.003,1.104-0.117,1.98-0.02c0.145,0.015,0.29,0.022,0.434,0.022  c0.329,0,1.349-0.049,1.672-0.567c0.201-0.001,0.441,0,0.657,0.002c2.257,0.018,3.437-0.013,3.485-0.833  c0.041-0.681-0.625-1.282-1.979-1.786l-0.429-0.153c-0.691-0.242-1.848-0.647-2.48-1.042c-0.162-0.102-0.339-0.208-0.522-0.315  c-0.587-0.348-1.472-0.871-1.601-1.215c-0.146-0.393,0.455-1.882,0.743-2.599l0.114-0.284c0.258-0.642,0.808-1.422,1.339-2.173  c0.283-0.401,0.566-0.803,0.814-1.191c0.419-0.659,0.917-1.644,1.443-2.684c0.404-0.797,0.812-1.604,1.181-2.246  c0.82-1.438,1.131-2.595,1.001-3.748c-0.131-1.165-1.832-2.358-3.723-2.706c0.095-0.314,0.188-0.632,0.276-0.944  c0.082-0.287,0.146-0.51,0.187-0.63c0.211-0.635,0.547-2.061,0.542-3.117l0.13-0.902c0.215,0.353,0.539,0.755,0.999,1.043  c0.46,0.289,1.002,0.321,1.371,0.321c0.201,0,0.402-0.011,0.598-0.022c0.166-0.009,0.327-0.018,0.478-0.018  c0.252,0,0.366,0.029,0.416,0.055c0.145,0.072,0.348,0.266,0.546,0.454c0.445,0.423,0.948,0.902,1.598,0.902  c0.151,0,0.301-0.028,0.445-0.082c1.162-0.438,1.26-1.276,1.26-2.029c0-0.34-0.04-0.64-0.079-0.916  c-0.043-0.307-0.077-0.549-0.035-0.764c0.032-0.159,0.119-0.277,0.296-0.509c0.172-0.224,0.387-0.503,0.602-0.933  c0.494-0.987,0.696-2.654,0.68-3.471c-0.033-1.491-1.296-2.101-2.13-2.505c-0.154-0.074-0.298-0.143-0.417-0.211  c-0.768-0.439-1.333-0.689-2.429-0.448c-0.416,0.092-0.787-0.077-1.176-0.269c-0.257-0.127-0.523-0.258-0.818-0.308  c-0.172-0.03-0.377-0.017-0.588,0.026c0.186-0.324,0.382-0.715,0.611-1.172c0.189-0.379,1.274-1.04,1.993-1.478  c0.632-0.385,1.177-0.717,1.465-1.005c0.676-0.675,2.05-1.825,2.666-2.089c0.451-0.192,1.722-1.159,3.76-2.727  c1.122-0.863,2.182-1.677,2.692-2.018c1.101-0.733,2.323-1.524,3.055-1.837c0.195-0.084,0.645-0.068,1.075-0.033  c0.229,0.018,0.457,0.035,0.672,0.035c0.287,0,0.707-0.026,1.048-0.253c0.74-0.495,1.542-1.089,1.677-1.897  c0.047-0.283,0.01-0.483-0.06-0.645C93.037,25.761,93.046,25.752,93.056,25.742z M59.682,56.287c-0.001-0.04,0-0.083-0.002-0.121  c-0.003-0.062-0.006-0.139-0.009-0.206c0.099-0.009,0.243-0.016,0.451-0.016c0.557,0,1.285,0.048,1.963,0.112  C61.189,56.118,60.269,56.217,59.682,56.287z M47.696,51.397c0.235-0.157,1.204-0.929,2.771-2.183  c1.267-1.015,2.578-2.063,2.934-2.317l0.848-0.613c0.177-0.128,0.402-0.292,0.643-0.466c0.125,1.234,0.431,4.121,0.653,4.855  c0.286,0.941,1.082,3.657,2.146,4.492c0.439,0.346,0.772,0.472,1.018,0.508c-0.021,0.164-0.024,0.338-0.016,0.535  c0.006,0.15,0.018,0.418-0.011,0.534c-0.1,0.055-0.239,0.147-0.395,0.256c-0.66,0.104-1.704,0.179-2.743-0.148  c-1.699-0.535-5.25-2.102-6.503-3.042c-0.868-0.651-1.583-1.389-1.945-1.787C47.383,51.701,47.609,51.462,47.696,51.397z   M43.894,63.715c-0.738,0.403-2.756,1.031-4.231,1.491c-0.742,0.232-1.387,0.433-1.76,0.568l-0.665,0.235  c-1.079,0.38-2.422,0.852-3.49,1.474c-0.589,0.344-1.924,0.698-3.103,1.012c-1.232,0.327-2.396,0.637-2.961,0.977  c-1.034,0.62-5.177,2.582-6.472,2.981c-1.548,0.476-3.569,1.205-4.601,1.824c-0.854,0.512-1.847,1.231-2.571,1.756l-0.491,0.354  c-0.304,0.218-0.705,0.235-1.212,0.259c-0.428,0.021-0.913,0.043-1.452,0.189c-1.068,0.291-3.905,0.504-4.779,0.504  c-0.047,0-0.084-0.002-0.113-0.006c0.019-0.129,0.083-0.346,0.133-0.513l0.03-0.101c0.055-0.187,0.064-0.189,0.216-0.24  c0.172-0.058,0.433-0.146,0.652-0.439c0.24-0.32,0.88-0.893,1.215-1.15c0.44,0.024,1.611,0.083,2.592,0.083  c1.007,0,1.325-0.062,1.49-0.118c0.766-0.255,2.342-0.927,2.65-1.059c0.77-0.33,3.329-2.032,3.987-2.582  c0.645-0.537,4.244-2.99,5.108-3.375c0.303-0.135,0.812-0.377,1.387-0.651c1.134-0.542,2.688-1.284,3.145-1.414  c0.817-0.234,5.292-2.382,6.485-3.078c1.003-0.586,3.034-2.213,4.377-3.29c0.376-0.301,0.69-0.554,0.9-0.718  c0.309-0.239,0.652-0.49,0.995-0.741c0.682-0.501,1.381-1.016,1.829-1.453c0.9,1.141,3.587,4.527,4.703,5.702  C46.524,62.487,44.709,63.271,43.894,63.715z M53.992,63.673c0.664-0.572,1.053-1.361,1.401-2.089  c0.271-0.562,0.525-1.094,0.883-1.493c1.098-1.229,2.555-2.321,2.909-2.498c0.142-0.071,0.242-0.172,0.316-0.288  c1.298-0.162,3.147-0.334,4.15-0.31c-0.135,0.312-0.281,0.625-0.411,0.841c-0.408,0.68-0.812,2.314-1.007,4.066  c-0.071,0.646-0.095,1.12-0.11,1.497C60.983,63.78,56.354,63.85,53.992,63.673z M67.584,78.701c-0.974-0.11-2.137,0.012-2.254,0.029  c-0.003,0.001-0.479,0.099-1.287-0.009l-0.104-0.013c-0.863-0.113-1.678-0.222-2.32-0.737c-0.447-0.36-0.424-1.177-0.398-2.123  c0.007-0.237,0.014-0.481,0.014-0.73c0-0.901,0.191-2.424,0.36-3.768c0.08-0.628,0.154-1.225,0.206-1.718  c0.169-1.631,0.585-3.789,0.936-4.402c0.323-0.568,0.341-0.987,0.37-1.686c0.016-0.375,0.035-0.857,0.11-1.534  c0.194-1.763,0.595-3.204,0.872-3.665c0.328-0.548,0.772-1.642,0.878-2.113c0.141-0.142,0.192-0.366,0.115-0.55  s-0.255-0.304-0.547-0.304c-0.061,0.001-0.13-0.002-0.224-0.015c0.374-0.511,1.153-1.491,1.891-1.871  c0.746-0.383,2.479-0.758,3.344-0.93c-0.103,0.671-0.266,1.327-0.396,1.715c-0.042,0.128-0.111,0.365-0.198,0.67  c-0.289,1.011-0.967,3.378-1.48,3.966c-0.62,0.708-1.319,2.195-1.83,3.281c-0.128,0.273-0.24,0.513-0.329,0.689  c-0.021,0.041-0.029,0.096-0.048,0.14c-0.047,0.068-0.071,0.149-0.079,0.234c-0.254,0.795-0.258,1.866-0.244,2.925l0.006,0.682  c0,0.786-0.275,1.672-0.567,2.61c-0.171,0.549-0.348,1.118-0.467,1.675c-0.118,0.549-0.296,1.174-0.471,1.788  c-0.301,1.056-0.585,2.053-0.585,2.703c0,0.97,0.108,1.343,0.129,1.407c0.047,0.141,0.153,0.253,0.29,0.306  c0.081,0.032,1.979,0.766,3.104,0.766c0.599,0,1.316,0.297,1.843,0.583C68.037,78.722,67.806,78.726,67.584,78.701z M72.366,58.981  c0.104,0.932-0.166,1.901-0.878,3.146c-0.374,0.656-0.79,1.478-1.203,2.291c-0.492,0.974-1.002,1.98-1.396,2.599  c-0.238,0.376-0.513,0.765-0.787,1.152c-0.564,0.799-1.147,1.626-1.447,2.377l-0.113,0.279c-0.586,1.453-1.016,2.619-0.753,3.317  c0.253,0.669,1.151,1.202,2.021,1.717c0.176,0.104,0.349,0.206,0.505,0.304c0.724,0.452,1.898,0.864,2.676,1.137l0.41,0.146  c0.629,0.233,1.002,0.469,1.189,0.628c-0.577,0.09-1.772,0.08-2.343,0.076c-0.479-0.005-0.797-0.005-1.017,0.009  c-0.543-0.365-1.751-1.028-2.849-1.028c-0.673,0-1.857-0.375-2.491-0.604c-0.021-0.173-0.044-0.458-0.044-0.887  c0-0.513,0.277-1.488,0.547-2.434c0.181-0.635,0.365-1.281,0.488-1.852c0.109-0.513,0.279-1.06,0.443-1.589  c0.3-0.967,0.611-1.966,0.611-2.902l-0.006-0.693c-0.011-0.859-0.02-1.806,0.135-2.45l0.022-0.005  c0.999-0.208,1.858-0.413,2.267-0.821c0.193-0.193,0.193-0.507,0-0.7c-0.193-0.191-0.506-0.191-0.699,0  c-0.15,0.151-0.65,0.297-1.112,0.408c0.459-0.975,1.146-2.438,1.674-3.039c0.387-0.442,0.763-1.377,1.113-2.446  C71.036,57.39,72.307,58.44,72.366,58.981z M72.796,41.837c0.002,0,0.004,0,0.006,0c0.151,0.025,0.342,0.119,0.542,0.218  c0.461,0.228,1.123,0.507,1.829,0.349c0.75-0.167,1.016-0.063,1.724,0.34c0.138,0.079,0.301,0.158,0.478,0.244  c0.257,0.125,0.493,0.246,0.704,0.376c-0.001,0.032-0.007,0.055,0.004,0.101c0.147,0.632,0.521,2.298-0.732,3.238  s-3.133,1.254-3.133,1.254s1.044,1.358,0,1.712c-0.724,0.246-2.036,0.151-2.783,0.069c-0.058-0.127-0.089-0.216-0.09-0.219  c-0.021-0.067-0.058-0.131-0.106-0.183l-0.417-0.459c-0.127-0.14-0.324-0.195-0.511-0.139c-0.183,0.056-0.316,0.213-0.344,0.402  l-0.139,0.987c-0.523,0.39-1.305,0.874-1.879,0.79c-0.939-0.139-2.193-0.245-2.193-1.603c0-1.358,0.313-2.716,1.254-3.656  c0.215-0.216,0.466-0.407,0.724-0.577l-0.064,0.487c0.018,0.002,0.149,0.02,0.348,0.02c0.487,0,1.366-0.102,1.908-0.765  c0.373-0.455,0.358-0.866,0.348-1.165c-0.01-0.311-0.019-0.535,0.457-0.982c0.075-0.071,0.146-0.129,0.211-0.185  c0.1,0.008,0.201-0.01,0.29-0.063C71.645,42.183,72.388,41.837,72.796,41.837z M92.356,25.043c-0.201,0.202-0.574,0.575-0.235,1.109  c0,0,0.006,0.027-0.006,0.1c-0.075,0.453-0.84,0.963-1.25,1.237c-0.154,0.103-0.631,0.092-1.095,0.055  c-0.604-0.048-1.166-0.05-1.541,0.111c-0.804,0.343-2.02,1.127-3.214,1.923c-0.537,0.358-1.61,1.183-2.747,2.056  c-1.34,1.032-3.178,2.444-3.547,2.602c-0.838,0.359-2.352,1.674-2.975,2.298c-0.205,0.205-0.752,0.538-1.28,0.86  c-1.006,0.613-2.048,1.247-2.363,1.88c-0.373,0.745-0.694,1.388-0.955,1.648c-0.163,0.165-0.297,0.347-0.4,0.502  c-0.214,0.129-0.441,0.291-0.697,0.531c-0.74,0.697-0.784,1.22-0.766,1.737c0.009,0.236,0.01,0.335-0.122,0.498  c-0.935-0.021-3.368-0.121-4.453-0.622c-0.896-0.414-2.078-0.993-2.787-1.343l1.075-0.386c0.744-0.271,2.011-0.867,2.938-1.303  c0.509-0.24,0.903-0.428,1.02-0.468c0.209-0.069,0.694-0.418,3.714-2.737c1.035-0.796,2.014-1.548,2.254-1.708  c0.644-0.43,6.261-4.069,6.97-4.475c0.121-0.069,0.397-0.231,0.778-0.455c4.092-2.404,6.37-3.671,6.708-3.763  c0.409,0,1.142-0.393,3-1.5c0.538-0.32,1.02-0.609,1.295-0.747c0.38-0.189,0.892-0.553,1.435-0.937  c0.115-0.082,0.247-0.175,0.379-0.269C93.114,24.084,92.632,24.769,92.356,25.043z"></path></g>
</svg>
</g><g opacity="1" transform="rotate(0 469.8875 479.3207)">
<svg width="216.2074" height="21.6" x="469.8875" y="479.3207" version="1.1" preserveAspectRatio="none" viewBox="2.5391 -30 385.65000000000003 38.5352">
  <g transform="matrix(1 0 0 1 0 0)" class="companyName"><path id="id-6izo4zJp19" d="M19.65-16.35L19.65-11.62L8.40-11.62L8.40 0L2.54 0L2.54-28.44L21.05-28.44L21.05-23.69L8.40-23.69L8.40-16.35L19.65-16.35Z M30.84-21.13L30.84 0L25.18 0L25.18-21.13L30.84-21.13ZM24.84-26.60L24.84-26.60Q24.84-27.87 25.69-28.69Q26.54-29.51 28.01-29.51L28.01-29.51Q29.45-29.51 30.31-28.69Q31.17-27.87 31.17-26.60L31.17-26.60Q31.17-25.31 30.30-24.49Q29.43-23.67 28.01-23.67Q26.58-23.67 25.71-24.49Q24.84-25.31 24.84-26.60Z M36.17-21.13L41.48-21.13L41.66-18.69Q43.92-21.52 47.73-21.52L47.73-21.52Q51.09-21.52 52.73-19.55Q54.37-17.58 54.41-13.65L54.41-13.65L54.41 0L48.77 0L48.77-13.52Q48.77-15.31 47.99-16.12Q47.21-16.93 45.39-16.93L45.39-16.93Q43.01-16.93 41.81-14.90L41.81-14.90L41.81 0L36.17 0L36.17-21.13Z M58.61-10.72L58.61-10.72Q58.61-15.66 60.83-18.59Q63.04-21.52 66.89-21.52L66.89-21.52Q69.98-21.52 71.99-19.22L71.99-19.22L71.99-30L77.65-30L77.65 0L72.56 0L72.28-2.25Q70.17 0.39 66.85 0.39L66.85 0.39Q63.12 0.39 60.87-2.55Q58.61-5.49 58.61-10.72ZM64.26-10.31L64.26-10.31Q64.26-7.34 65.29-5.76Q66.33-4.18 68.30-4.18L68.30-4.18Q70.92-4.18 71.99-6.39L71.99-6.39L71.99-14.73Q70.94-16.93 68.34-16.93L68.34-16.93Q64.26-16.93 64.26-10.31Z M117.11-28.44L117.11 0L111.25 0L111.25-12.19L99.82-12.19L99.82 0L93.96 0L93.96-28.44L99.82-28.44L99.82-16.91L111.25-16.91L111.25-28.44L117.11-28.44Z M140.60 0L134.90 0Q134.51-0.76 134.33-1.89L134.33-1.89Q132.28 0.39 129.00 0.39L129.00 0.39Q125.89 0.39 123.85-1.41Q121.81-3.20 121.81-5.94L121.81-5.94Q121.81-9.30 124.30-11.09Q126.79-12.89 131.50-12.91L131.50-12.91L134.10-12.91L134.10-14.12Q134.10-15.59 133.34-16.46Q132.59-17.34 130.97-17.34L130.97-17.34Q129.55-17.34 128.74-16.66Q127.92-15.98 127.92-14.79L127.92-14.79L122.28-14.79Q122.28-16.62 123.41-18.18Q124.55-19.75 126.62-20.63Q128.69-21.52 131.26-21.52L131.26-21.52Q135.17-21.52 137.47-19.56Q139.76-17.60 139.76-14.04L139.76-14.04L139.76-4.88Q139.78-1.88 140.60-0.33L140.60-0.33L140.60 0ZM130.23-3.93L130.23-3.93Q131.48-3.93 132.53-4.48Q133.59-5.04 134.10-5.98L134.10-5.98L134.10-9.61L131.99-9.61Q127.75-9.61 127.48-6.68L127.48-6.68L127.46-6.35Q127.46-5.29 128.20-4.61Q128.94-3.93 130.23-3.93Z M156.85-21.27L156.77-15.84Q155.62-16.00 154.74-16.00L154.74-16.00Q151.54-16.00 150.54-13.83L150.54-13.83L150.54 0L144.90 0L144.90-21.13L150.23-21.13L150.39-18.61Q152.08-21.52 155.09-21.52L155.09-21.52Q156.03-21.52 156.85-21.27L156.85-21.27Z M160.29-21.13L165.58-21.13L165.76-18.77Q168.00-21.52 171.83-21.52L171.83-21.52Q175.91-21.52 177.44-18.30L177.44-18.30Q179.66-21.52 183.78-21.52L183.78-21.52Q187.22-21.52 188.90-19.52Q190.58-17.52 190.58-13.50L190.58-13.50L190.58 0L184.92 0L184.92-13.48Q184.92-15.27 184.21-16.10Q183.51-16.93 181.73-16.93L181.73-16.93Q179.19-16.93 178.22-14.51L178.22-14.51L178.24 0L172.59 0L172.59-13.46Q172.59-15.29 171.87-16.11Q171.15-16.93 169.41-16.93L169.41-16.93Q167.01-16.93 165.93-14.94L165.93-14.94L165.93 0L160.29 0L160.29-21.13Z M194.84-10.51L194.84-10.76Q194.84-13.91 196.05-16.37Q197.26-18.83 199.53-20.18Q201.81-21.52 204.82-21.52L204.82-21.52Q209.09-21.52 211.80-18.91Q214.50-16.29 214.82-11.80L214.82-11.80L214.86-10.35Q214.86-5.49 212.14-2.55Q209.43 0.39 204.86 0.39Q200.29 0.39 197.56-2.54Q194.84-5.47 194.84-10.51L194.84-10.51ZM200.48-10.35L200.48-10.35Q200.48-7.34 201.61-5.75Q202.75-4.16 204.86-4.16L204.86-4.16Q206.91-4.16 208.06-5.73Q209.21-7.30 209.21-10.76L209.21-10.76Q209.21-13.71 208.06-15.33Q206.91-16.95 204.82-16.95L204.82-16.95Q202.75-16.95 201.61-15.34Q200.48-13.73 200.48-10.35Z M219.02-21.13L224.33-21.13L224.50-18.69Q226.77-21.52 230.58-21.52L230.58-21.52Q233.94-21.52 235.58-19.55Q237.22-17.58 237.26-13.65L237.26-13.65L237.26 0L231.61 0L231.61-13.52Q231.61-15.31 230.83-16.12Q230.05-16.93 228.23-16.93L228.23-16.93Q225.85-16.93 224.66-14.90L224.66-14.90L224.66 0L219.02 0L219.02-21.13Z M246.30-21.13L250.23-7.99L254.13-21.13L260.19-21.13L251.69 3.28L251.22 4.39Q249.33 8.54 244.97 8.54L244.97 8.54Q243.74 8.54 242.47 8.16L242.47 8.16L242.47 3.89L243.33 3.91Q244.93 3.91 245.72 3.42Q246.51 2.93 246.96 1.80L246.96 1.80L247.63 0.06L240.23-21.13L246.30-21.13Z M291.83-28.44L296.49-8.20L300.32-28.44L306.16-28.44L299.85 0L293.95 0L289.33-19.02L284.70 0L278.80 0L272.49-28.44L278.33-28.44L282.18-8.24L286.86-28.44L291.83-28.44Z M315.71-21.13L315.71 0L310.05 0L310.05-21.13L315.71-21.13ZM309.72-26.60L309.72-26.60Q309.72-27.87 310.57-28.69Q311.41-29.51 312.88-29.51L312.88-29.51Q314.33-29.51 315.18-28.69Q316.04-27.87 316.04-26.60L316.04-26.60Q316.04-25.31 315.17-24.49Q314.31-23.67 312.88-23.67Q311.45-23.67 310.58-24.49Q309.72-25.31 309.72-26.60Z M322.27-26.33L327.92-26.33L327.92-21.13L331.53-21.13L331.53-16.99L327.92-16.99L327.92-6.45Q327.92-5.27 328.37-4.77Q328.82-4.26 330.09-4.26L330.09-4.26Q331.02-4.26 331.75-4.39L331.75-4.39L331.75-0.12Q330.09 0.39 328.33 0.39L328.33 0.39Q322.39 0.39 322.27-5.61L322.27-5.61L322.27-16.99L319.19-16.99L319.19-21.13L322.27-21.13L322.27-26.33Z M340.98-30L340.98-18.83Q343.23-21.52 346.63-21.52L346.63-21.52Q353.50-21.52 353.60-13.54L353.60-13.54L353.60 0L347.96 0L347.96-13.38Q347.96-15.20 347.18-16.06Q346.39-16.93 344.58-16.93L344.58-16.93Q342.10-16.93 340.98-15.02L340.98-15.02L340.98 0L335.34 0L335.34-30L340.98-30Z M364.62-21.13L364.62 0L358.95 0L358.95-21.13L364.62-21.13ZM358.62-26.60L358.62-26.60Q358.62-27.87 359.47-28.69Q360.32-29.51 361.78-29.51L361.78-29.51Q363.23-29.51 364.09-28.69Q364.95-27.87 364.95-26.60L364.95-26.60Q364.95-25.31 364.08-24.49Q363.21-23.67 361.78-23.67Q360.36-23.67 359.49-24.49Q358.62-25.31 358.62-26.60Z M369.95-21.13L375.26-21.13L375.44-18.69Q377.70-21.52 381.51-21.52L381.51-21.52Q384.87-21.52 386.51-19.55Q388.15-17.58 388.19-13.65L388.19-13.65L388.19 0L382.54 0L382.54-13.52Q382.54-15.31 381.76-16.12Q380.98-16.93 379.17-16.93L379.17-16.93Q376.78-16.93 375.59-14.90L375.59-14.90L375.59 0L369.95 0L369.95-21.13Z"/></g>
</svg>
</g><g opacity="1" transform="rotate(0 383.243 425.3207)">
<svg width="389.4964" height="40" x="383.243" y="425.3207" version="1.1" preserveAspectRatio="none" viewBox="1.32 -25.44 247.72 25.44">
  <g transform="matrix(1 0 0 1 0 0)" class="companyName"><path id="id-D6z1nYkh14" d="M10.64-5.20L10.64-5.20L10.64-9.80Q10.64-10.32 10.40-10.54Q10.16-10.76 9.56-10.76L9.56-10.76L6.04-10.76Q1.32-10.76 1.32-15.24L1.32-15.24L1.32-21.04Q1.32-25.44 6.36-25.44L6.36-25.44L11.24-25.44Q16.28-25.44 16.28-21.04L16.28-21.04L16.28-17.72L10.56-17.72L10.56-20.24Q10.56-21.24 9.48-21.24L9.48-21.24L8.12-21.24Q7.04-21.24 7.04-20.24L7.04-20.24L7.04-15.76Q7.04-15.24 7.28-15.02Q7.52-14.80 8.12-14.80L8.12-14.80L11.56-14.80Q14.12-14.80 15.24-13.70Q16.36-12.60 16.36-10.44L16.36-10.44L16.36-4.44Q16.36 0 11.32 0L11.32 0L6.48 0Q1.40 0 1.40-4.44L1.40-4.44L1.40-7.72L7.12-7.72L7.12-5.20Q7.12-4.20 8.20-4.20L8.20-4.20L9.56-4.20Q10.64-4.20 10.64-5.20Z M26-10.84L26-4.20L34.16-4.20L34.16 0L20.28 0L20.28-25.44L33.84-25.44L33.84-21.24L26-21.24L26-15.04L32.68-15.04L32.68-10.84L26-10.84Z M44.12-9.52L43.12-9.52L43.12 0L37.44 0L37.44-25.44L47.92-25.44Q52.96-25.44 52.96-21.04L52.96-21.04L52.96-13.92Q52.96-10.40 49.76-9.68L49.76-9.68L54.24 0L48.12 0L44.12-9.52ZM46.20-21.24L43.12-21.24L43.12-13.56L46.20-13.56Q46.76-13.56 47-13.78Q47.24-14 47.24-14.52L47.24-14.52L47.24-20.24Q47.24-21.24 46.20-21.24L46.20-21.24Z M62.72-10.84L62.72-4.20L70.88-4.20L70.88 0L57 0L57-25.44L70.56-25.44L70.56-21.24L62.72-21.24L62.72-15.04L69.40-15.04L69.40-10.84L62.72-10.84Z M84.80-10.24L84.80-25.44L90.04-25.44L90.04 0L84.92 0L79.36-15.24L79.36 0L74.16 0L74.16-25.44L79.32-25.44L84.80-10.24Z M94.52 0L94.52-25.44L100.20-25.44L100.20 0L94.52 0Z M103.12-25.44L118.16-25.44L118.16-21.24L113.48-21.24L113.48 0L107.76 0L107.76-21.24L103.12-21.24L103.12-25.44Z M131.36-8.20L131.36 0L125.64 0L125.64-8.24L119.24-25.44L125.08-25.44L128.48-13.48L131.64-25.44L137.48-25.44L131.36-8.20Z M148.96-5.20L148.96-5.20L148.96-9.80Q148.96-10.32 148.72-10.54Q148.48-10.76 147.88-10.76L147.88-10.76L144.36-10.76Q139.64-10.76 139.64-15.24L139.64-15.24L139.64-21.04Q139.64-25.44 144.68-25.44L144.68-25.44L149.56-25.44Q154.60-25.44 154.60-21.04L154.60-21.04L154.60-17.72L148.88-17.72L148.88-20.24Q148.88-21.24 147.80-21.24L147.80-21.24L146.44-21.24Q145.36-21.24 145.36-20.24L145.36-20.24L145.36-15.76Q145.36-15.24 145.60-15.02Q145.84-14.80 146.44-14.80L146.44-14.80L149.88-14.80Q152.44-14.80 153.56-13.70Q154.68-12.60 154.68-10.44L154.68-10.44L154.68-4.44Q154.68 0 149.64 0L149.64 0L144.80 0Q139.72 0 139.72-4.44L139.72-4.44L139.72-7.72L145.44-7.72L145.44-5.20Q145.44-4.20 146.52-4.20L146.52-4.20L147.88-4.20Q148.96-4.20 148.96-5.20Z M158.60 0L158.60-25.44L169.08-25.44Q174.12-25.44 174.12-21.04L174.12-21.04L174.12-13.32Q174.12-8.88 169.08-8.88L169.08-8.88L164.28-8.88L164.28 0L158.60 0ZM168.40-14.08L168.40-14.08L168.40-20.24Q168.40-21.24 167.36-21.24L167.36-21.24L164.28-21.24L164.28-13.08L167.36-13.08Q168.40-13.08 168.40-14.08Z M188.40-14.68L188.40-25.44L194.04-25.44L194.04 0L188.40 0L188.40-10.48L183.28-10.48L183.28 0L177.64 0L177.64-25.44L183.28-25.44L183.28-14.68L188.40-14.68Z M204.16-10.84L204.16-4.20L212.32-4.20L212.32 0L198.44 0L198.44-25.44L212.00-25.44L212.00-21.24L204.16-21.24L204.16-15.04L210.84-15.04L210.84-10.84L204.16-10.84Z M222.28-9.52L221.28-9.52L221.28 0L215.60 0L215.60-25.44L226.08-25.44Q231.12-25.44 231.12-21.04L231.12-21.04L231.12-13.92Q231.12-10.40 227.92-9.68L227.92-9.68L232.40 0L226.28 0L222.28-9.52ZM224.36-21.24L221.28-21.24L221.28-13.56L224.36-13.56Q224.92-13.56 225.16-13.78Q225.40-14 225.40-14.52L225.40-14.52L225.40-20.24Q225.40-21.24 224.36-21.24L224.36-21.24Z M240.88-10.84L240.88-4.20L249.04-4.20L249.04 0L235.16 0L235.16-25.44L248.72-25.44L248.72-21.24L240.88-21.24L240.88-15.04L247.56-15.04L247.56-10.84L240.88-10.84Z"/></g>
</svg>
</g></svg></svg>